<svg xmlns="http://www.w3.org/2000/svg" width="520" height="520" viewBox="0 0 137.58334 137.58333">
	<defs>
		<mask maskUnits="userSpaceOnUse" id="A">
			<path d="M0 0h137.58333v137.58333H0z" fill="#fff" stroke="none" stroke-width=".695883"/>
			<g fill="#000">
				<rect width="105.83334" height="92.604164" x="15.875" y="29.104166" rx="5.3364968" ry="4.6694345" stroke-width=".249591"/>
				<g stroke-width=".179676">
					<circle cx="19.182295" cy="19.182291" r="3.3072917"/>
					<circle cx="29.765625" cy="19.182291" r="3.3072917"/>
					<circle cx="40.348957" cy="19.182291" r="3.3072917"/>
				</g>
			</g>
		</mask>
		<clipPath id="B">
			<path d="M84.835175 83.787834h39.170815v41.160776H84.835175z" fill="#fff" stroke="none" stroke-width=".309047" stroke-dasharray="none"/>
		</clipPath>
	</defs>
	<rect width="137.58333" height="137.58333" rx="5.2916665" fill="#f7bf50"/>
	<g transform="matrix(1.089063 0 0 1.089063 -12.385497 -11.12834)">
		<circle cx="111.1748" cy="111.27956" clip-path="url(#B)" transform="translate(3.1750001)" r="19.049997" fill="#f7bf50" stroke="#001e20" stroke-width="9.52496"/>
		<g fill="#001e20">
			<rect width="13.229167" height="10.583333" x="107.601" y="80.651276" rx="1.4160936" ry="1.3367925"/>
			<rect width="13.229167" height="10.583333" x="-16.415455" y="128.33131" rx="1.4160936" ry="1.3367925" transform="rotate(310.00629)"/>
			<rect width="13.229167" height="10.583333" x="-119.344" y="82.703308" rx="1.4160936" ry="1.3367925" transform="rotate(269.337226)"/>
		</g>
	</g>
	<rect width="121.70834" height="121.70834" x="7.9375" y="7.9375" rx="5.2916665" mask="url(#A)" fill="#001e20"/>
	<path d="M26.699634 79.501998h1.9939l.889 6.3627h.0254l.889-6.3627h1.9939v8.89h-1.3208v-6.731h-.0254l-1.016 6.731h-1.1684l-1.016-6.731h-.0254v6.731h-1.2192zm8.851901 9.017q-1.0287 0-1.5748-.5842-.5461-.5842-.5461-1.651v-4.6736q0-1.0668.5461-1.651.5461-.5842 1.5748-.5842 1.0287 0 1.5748.5842.5461.5842.5461 1.651v4.6736q0 1.0668-.5461 1.651-.5461.5842-1.5748.5842zm0-1.27q.7239 0 .7239-.8763v-4.8514q0-.8763-.7239-.8763-.7239 0-.7239.8763v4.8514q0 .8763.7239.8763zm3.060695-7.747h2.1336q1.0414 0 1.5621.5588.5207.5588.5207 1.6383v4.4958q0 1.0795-.5207 1.6383-.5207.5588-1.5621.5588h-2.1336zm2.1082 7.62q.3429 0 .5207-.2032.1905-.2032.1905-.6604v-4.6228q0-.4572-.1905-.6604-.1778-.2032-.5207-.2032h-.7112v6.35zm3.048002-7.62h2.1336q1.0414 0 1.5621.5588.5207.5588.5207 1.6383v4.4958q0 1.0795-.5207 1.6383-.5207.5588-1.5621.5588h-2.1336zm2.1082 7.62q.3429 0 .5207-.2032.1905-.2032.1905-.6604v-4.6228q0-.4572-.1905-.6604-.1778-.2032-.5207-.2032h-.7112v6.35zm3.048002-7.62h1.397v8.89h-1.397zm2.438393 0h1.7526l1.3589 5.3213h.0254v-5.3213h1.2446v8.89h-1.4351l-1.6764-6.4897h-.0254v6.4897h-1.2446zm7.404101 9.017q-1.016 0-1.5494-.5715-.5334-.5842-.5334-1.6637v-4.6736q0-1.0795.5334-1.651.5334-.5842 1.5494-.5842 1.016 0 1.5494.5842.5334.5715.5334 1.651v.762h-1.3208v-.8509q0-.8763-.7239-.8763-.7239 0-.7239.8763v4.8641q0 .8636.7239.8636.7239 0 .7239-.8636v-1.7399h-.6985v-1.27h2.0193v2.9083q0 1.0795-.5334 1.6637-.5334.5715-1.5494.5715zM28.515734 100.42309q-1.016 0-1.5367-.571497-.5207-.5842-.5207-1.6637v-.508h1.3208v.6096q0 .8636.7239.8636.3556 0 .5334-.2032.1905-.2159.1905-.6858 0-.5588-.254-.9779-.254-.4318-.9398-1.0287-.8636-.762-1.2065-1.3716-.3429-.6223-.3429-1.397 0-1.0541.5334-1.6256.5334-.5842 1.5494-.5842 1.0033 0 1.5113.5842.5207.5715.5207 1.651v.3683h-1.3208v-.4572q0-.4572-.1778-.6604-.1778-.2159-.5207-.2159-.6985 0-.6985.8509 0 .4826.254.9017.2667.4191.9525 1.016.8763.762 1.2065 1.3843.3302.6223.3302 1.4605 0 1.0922-.5461 1.6764-.5334.584197-1.5621.584197zm4.000497-7.746997h-1.4605v-1.27h4.318v1.27h-1.4605v7.619997h-1.397zm4.025909-1.27h1.8923l1.4478 8.889997h-1.397l-.254-1.765297v.0254h-1.5875l-.254 1.739897h-1.2954zm1.524 5.9436l-.6223-4.3942h-.0254l-.6096 4.3942zm2.489189-5.9436h1.7526l1.3589 5.3213h.0254v-5.3213h1.2446v8.889997h-1.4351l-1.6764-6.489697h-.0254v6.489697h-1.2446zm5.4229 0h2.1336q1.0414 0 1.5621.5588.5207.5588.5207 1.6383v4.4958q0 1.0795-.5207 1.6383-.5207.558797-1.5621.558797h-2.1336zm2.1082 7.62q.3429 0 .5207-.2032.1905-.2032.1905-.6604v-4.6228q0-.4572-.1905-.6604-.1778-.2032-.5207-.2032h-.7112v6.35zm4.102091-7.62h1.8923l1.4478 8.889997h-1.397l-.254-1.765297v.0254h-1.5875l-.254 1.739897h-1.2954zm1.524 5.9436l-.6223-4.3942h-.0254l-.6096 4.3942zm2.489189-5.9436h2.0701q1.0795 0 1.5748.508.4953.4953.4953 1.5367v.5461q0 1.3843-.9144 1.7526v.0254q.508.1524.7112.6223.2159.4699.2159 1.2573v1.5621q0 .381.0254.6223.0254.228597.127.457197h-1.4224q-.0762-.2159-.1016-.406397-.0254-.1905-.0254-.6858v-1.6256q0-.6096-.2032-.8509-.1905-.2413-.6731-.2413h-.4826v3.809997h-1.397zm1.905 3.81q.4191 0 .6223-.2159.2159-.2159.2159-.7239v-.6858q0-.4826-.1778-.6985-.1651-.2159-.5334-.2159h-.635v2.54zm3.213099-3.81h2.1336q1.0414 0 1.5621.5588.5207.5588.5207 1.6383v4.4958q0 1.0795-.5207 1.6383-.5207.558797-1.5621.558797h-2.1336zm2.1082 7.62q.3429 0 .5207-.2032.1905-.2032.1905-.6604v-4.6228q0-.4572-.1905-.6604-.1778-.2032-.5207-.2032h-.7112v6.35zm4.864101 1.396997q-1.016 0-1.5367-.571497-.5207-.5842-.5207-1.6637v-.508h1.3208v.6096q0 .8636.7239.8636.3556 0 .5334-.2032.1905-.2159.1905-.6858 0-.5588-.254-.9779-.254-.4318-.9398-1.0287-.8636-.762-1.2065-1.3716-.3429-.6223-.3429-1.397 0-1.0541.5334-1.6256.5334-.5842 1.5494-.5842 1.0033 0 1.5113.5842.5207.5715.5207 1.651v.3683h-1.3208v-.4572q0-.4572-.1778-.6604-.1778-.2159-.5207-.2159-.6985 0-.6985.8509 0 .4826.254.9017.2667.4191.9525 1.016.8763.762 1.2065 1.3843.3302.6223.3302 1.4605 0 1.0922-.5461 1.6764-.5334.584197-1.5621.584197zm-40.131975 11.9041q-.762 0-1.1557-.5207-.3937-.5207-.3937-1.5113v-.9271q0-.6985.2413-1.1684.2413-.4699.7874-.6858v-.0254q-.4953-.2032-.7366-.6477-.2286-.4572-.2286-1.1684v-.1651q0-1.0795.5207-1.6383.5207-.5588 1.5621-.5588h1.6002v1.27h-1.5748q-.3429 0-.5334.2032-.1778.2032-.1778.6604v.5461q0 .508.2032.7239.2159.2159.635.2159h.5461v-.9906h1.3716v.9906h.3937v1.27h-.3937v2.921q0 .381.0254.6223.0254.2286.127.4572h-1.397q-.1016-.2794-.127-.6985h-.0254q-.2286.4191-.5334.6223-.2921.2032-.7366.2032zm.5207-1.27q.6604 0 .7747-.8001v-2.0574h-.5334q-.4826 0-.6985.2667-.2159.254-.2159.8636v.9017q0 .4445.1778.635.1778.1905.4953.1905zm7.378695 1.27q-1.016 0-1.5494-.5715-.5334-.5842-.5334-1.6637v-6.7818h1.397v6.8834q0 .4572.1778.6604.1905.2032.5334.2032.3429 0 .5207-.2032.1905-.2032.1905-.6604v-6.8834h1.3462v6.7818q0 1.0795-.5334 1.6637-.5334.5715-1.5494.5715zm4.165606-7.747h-1.4605v-1.27h4.318v1.27h-1.4605v7.62h-1.397zm3.530604-1.27h1.397v8.89h-1.397zm2.438392 0h1.397v7.62h2.2987v1.27h-3.6957zm4.3688 0h1.397v8.89h-1.397zm3.530592 1.27h-1.4605v-1.27h4.318v1.27h-1.4605v7.62h-1.397zm3.530605-1.27h1.397v8.89h-1.397zm2.438391 0h3.81v1.27h-2.413v2.3495h1.9177v1.27h-1.9177v2.7305h2.413v1.27h-3.81zm6.451621 9.017q-1.016 0-1.5367-.5715-.5207-.5842-.5207-1.6637v-.508h1.3208v.6096q0 .8636.7239.8636.3556 0 .5334-.2032.1905-.2159.1905-.6858 0-.5588-.254-.9779-.254-.4318-.9398-1.0287-.8636-.762-1.2065-1.3716-.3429-.6223-.3429-1.397 0-1.0541.5334-1.6256.5334-.5842 1.5494-.5842 1.0033 0 1.511299.5842.5207.5715.5207 1.651v.3683H67.27614v-.4572q0-.4572-.1778-.6604-.1778-.2159-.5207-.2159-.6985 0-.6985.8509 0 .4826.254.9017.2667.4191.9525 1.016.876299.762 1.206499 1.3843.3302.6223.3302 1.4605 0 1.0922-.5461 1.6764-.533399.5842-1.562099.5842zM26.458331 66.879914V34.984683h8.451958l4.501587 13.05251q.41341 1.324878.780887 2.747897.367477 1.423018.780887 2.846036h.183738q.413412-1.423018.780888-2.846036.367476-1.423019.780888-2.747897l4.317848-13.05251h8.451958v31.895231h-7.165791v-9.421361q0-1.619296.183738-3.876496.183739-2.306272.413411-4.563472.229673-2.306271.413412-3.925567h-.183739l-2.480466 8.636247-3.674764 10.549961h-4.225979l-3.674764-10.549961-2.388598-8.636247h-.183737q.183737 1.619296.41341 3.925567.229673 2.2572.413411 4.563472.183739 2.2572.183739 3.876496v9.421361zm45.107779.588835q-2.939811 0-5.925557-1.079531-2.939812-1.1286-5.374343-3.533009l4.13411-5.495795q1.60771 1.373949 3.582895 2.109993 1.975186.736044 3.766634.736044 1.791447 0 2.572335-.588836.826822-.588835.826822-1.668366 0-.785113-.505281-1.22674-.459345-.490696-1.378036-.883252-.872757-.441626-2.158924-.981391l-3.720699-1.619297q-1.607709-.736044-2.985746-1.913714-1.378036-1.22674-2.204859-2.944175-.826822-1.766505-.826822-4.072776 0-2.747896 1.423972-4.956028 1.423971-2.257201 3.904437-3.58208 2.5264-1.373949 5.787754-1.373949 2.710138 0 5.282473 1.030462 2.618269.981392 4.63939 2.993245l-4.13411 5.495793q-1.51584-1.1286-2.985746-1.668366-1.469905-.588834-2.802007-.588834-1.423971 0-2.296728.539765-.826823.539765-.826823 1.619297 0 .736043.50528 1.275809.551216.490696 1.561775.932322 1.010561.392556 2.342662.981392l3.62883 1.521157q1.883318.785113 3.169485 2.011853 1.286168 1.17767 1.975186 2.846036.689018 1.668366.689018 3.876498 0 2.698827-1.378036 5.054166-1.332102 2.306272-3.950372 3.72929-2.61827 1.423017-6.338969 1.423017zm28.66313 0q-3.123551 0-5.466216-.932321-2.342663-.932323-3.904438-2.846037-1.51584-1.913714-2.296727-4.80882-.734953-2.944175-.734953-6.918811V34.984683h7.900743v17.959469q0 2.649757.459346 4.269053.505279 1.570228 1.469905 2.306271 1.010564.686975 2.57234.686975 1.56177 0 2.57233-.686975 1.01056-.736043 1.51584-2.306271.50528-1.619296.50528-4.269053V34.984683h7.62514V51.96276q0 3.974636-.73495 6.918811-.73496 2.895106-2.2508 4.80882-1.4699 1.913714-3.81257 2.846037-2.29672.932321-5.42027.932321z" fill="#001e20"/>
</svg>